<svg xmlns="http://www.w3.org/2000/svg" width="760" height="620" viewBox="0 0 760 620" role="img" aria-labelledby="title desc" preserveAspectRatio="xMidYMid meet">
  <title id="title">이선우 GitHub 통계</title>
  <desc id="desc">GitHub 활동과 사용 언어를 자동 갱신하는 다크 통계 카드</desc>

  <defs>
    <linearGradient id="bg" x1="0" y1="0" x2="1" y2="1">
      <stop offset="0" stop-color="#0d1117"/>
      <stop offset="1" stop-color="#0b1220"/>
    </linearGradient>
    <filter id="softShadow" x="-10%" y="-10%" width="120%" height="130%">
      <feDropShadow dx="0" dy="14" stdDeviation="18" flood-color="#000000" flood-opacity="0.35"/>
    </filter>
  </defs>

  <rect width="760" height="620" rx="22" fill="url(#bg)"/>
  <rect x="20" y="20" width="720" height="580" rx="18" fill="none" stroke="#30363d"/>

  <g font-family="Pretendard, Noto Sans KR, Apple SD Gothic Neo, Segoe UI, sans-serif">
    <text x="64" y="76" fill="#58a6ff" font-size="30" font-weight="800">이선우의 GitHub 통계</text>
    <text x="64" y="108" fill="#8b949e" font-size="14">GitHub Actions 자동 갱신 · 공식 contribution graph 기준</text>

    <g transform="translate(64 142)">
      <rect width="632" height="220" rx="18" fill="#0b1220" stroke="#21262d"/>

      <g transform="translate(30 30)" font-size="22" font-weight="760">
        <text x="42" y="24" fill="#c9d1d9">받은 스타 수</text>
        <text x="476" y="24" fill="#c9d1d9" text-anchor="end">0</text>

        <text x="42" y="64" fill="#c9d1d9">전체 기여 수</text>
        <text x="476" y="64" fill="#c9d1d9" text-anchor="end">619</text>

        <text x="42" y="104" fill="#c9d1d9">커밋 기여</text>
        <text x="476" y="104" fill="#c9d1d9" text-anchor="end">206</text>

        <text x="42" y="144" fill="#c9d1d9">PR 횟수</text>
        <text x="476" y="144" fill="#c9d1d9" text-anchor="end">0</text>

        <text x="42" y="184" fill="#c9d1d9">이슈 개수</text>
        <text x="476" y="184" fill="#c9d1d9" text-anchor="end">0</text>
      </g>

      <g transform="translate(30 30)" fill="none" stroke="#1f6feb" stroke-width="2.7" stroke-linecap="round" stroke-linejoin="round">
        <path d="M13 2.5l3.2 6.4 7.1 1-5.1 5 1.2 7-6.4-3.4-6.3 3.4 1.2-7-5.1-5 7.1-1z"/>
        <path transform="translate(0 40)" d="M12 2a10 10 0 1 0 10 10"/>
        <path transform="translate(0 40)" d="M12 6v7l5 3"/>
        <path transform="translate(0 80)" d="M8 4h8M12 4v18M6 10l6-6 6 6M6 18l6 6 6-6"/>
        <circle transform="translate(0 120)" cx="12" cy="12" r="10"/>
        <path transform="translate(0 120)" d="M12 7v6"/>
        <circle transform="translate(0 120)" cx="12" cy="17" r="1"/>
        <path transform="translate(0 160)" d="M5 4h14a2 2 0 0 1 2 2v13H3V6a2 2 0 0 1 2-2z"/>
        <path transform="translate(0 160)" d="M8 23h8"/>
      </g>

      <g transform="translate(535 54)" filter="url(#softShadow)">
        <circle cx="42" cy="42" r="42" fill="#0f2747"/>
        <circle cx="42" cy="42" r="34" fill="#c9d1d9"/>
        <circle cx="42" cy="42" r="29" fill="#0d1117"/>
        <path fill="#c9d1d9" transform="translate(12 10) scale(0.58)" d="M52 4c-27 0-49 22-49 49 0 21 13 38 31 45 2 0 3-1 3-2V86c-12 3-15-5-15-5-2-5-5-7-5-7-4-3 0-3 0-3 5 0 8 5 8 5 4 8 12 6 15 4 0-3 2-6 3-7-10-1-20-5-20-23 0-5 2-9 5-13-1-1-2-6 0-12 0 0 4-1 13 5 4-1 8-2 12-2s8 1 12 2c9-6 13-5 13-5 2 6 1 11 0 12 3 4 5 8 5 13 0 18-10 22-20 23 2 2 3 5 3 10v15c0 1 1 2 3 2 18-7 31-24 31-45C101 26 79 4 52 4z"/>
      </g>
    </g>

    <text x="64" y="398" fill="#58a6ff" font-size="30" font-weight="800">Most Used Languages</text>

    <g>
      <rect x="64" y="430" width="632" height="16" rx="8" fill="#21262d"/>
      <rect x="64" y="430" width="309" height="16" rx="8" fill="#f1e05a"/>
      <rect x="373" y="430" width="133" height="16" fill="#A97BFF"/>
      <rect x="506" y="430" width="125" height="16" fill="#3572A5"/>
      <rect x="631" y="430" width="39" height="16" fill="#663399"/>
      <rect x="670" y="430" width="21" height="16" fill="#3178c6"/>
      <rect x="691" y="430" width="5" height="16" rx="8" fill="#e34c26"/>
    </g>

    <g font-size="19" font-weight="560">
      <circle cx="74" cy="488" r="9" fill="#f1e05a"/>
      <text x="94" y="495" fill="#c9d1d9">JavaScript 48.97%</text>

      <circle cx="414" cy="488" r="9" fill="#A97BFF"/>
      <text x="434" y="495" fill="#c9d1d9">Kotlin 21.09%</text>

      <circle cx="74" cy="524" r="9" fill="#3572A5"/>
      <text x="94" y="531" fill="#c9d1d9">Python 19.77%</text>

      <circle cx="414" cy="524" r="9" fill="#663399"/>
      <text x="434" y="531" fill="#c9d1d9">CSS 6.13%</text>

      <circle cx="74" cy="560" r="9" fill="#3178c6"/>
      <text x="94" y="567" fill="#c9d1d9">TypeScript 3.30%</text>

      <circle cx="414" cy="560" r="9" fill="#e34c26"/>
      <text x="434" y="567" fill="#c9d1d9">HTML 0.74%</text>
    </g>
  </g>
</svg>
